<svg xmlns="http://www.w3.org/2000/svg" version="1.1" xmlns:xlink="http://www.w3.org/1999/xlink" xmlns:svgjs="http://svgjs.dev/svgjs" width="100%" height="100%" viewBox="0 0 1000 600"><rect width="1000" height="600" x="0" y="0" fill="#ffff"/><g><rect width="333.3333333333333" height="333.3333333333333" rx="13.333333333333334" ry="13.333333333333334" y="198.92894199658812" fill="#000000" transform="matrix(0.7073868454353903,0,0,0.7073868454353902,0,41.38248461251386)" x="176.70675659179688"/><path d="M308.46991763396534 440.59559975684135L288.4738962737851 440.59559975684135L251.94385128145586 290.5955947474894L271.0743732096283 290.5955947474894L287.1905695297735 362.8200301081404L299.6358544658857 418.89842434064576L300.08352658588973 418.89842434064576L314.0508967300156 362.8200301081404L332.94266019418586 290.5955947474894L353.595267330372 290.5955947474894L371.8602898265366 362.8200301081404L385.82765997066247 418.6895106846439L386.4544009386682 418.6895106846439L399.3473579947844 362.8200301081404L416.32905374693746 290.5955947474894L434.8029898991039 290.5955947474894L396.33303238675717 440.59559975684135L376.3668558345772 440.59559975684135L356.818506594401 365.80451090816723L343.06005010627706 310.80052976367153L342.61237798627303 310.80052976367153L328.4360941861453 365.80451090816723L308.46991763396534 440.59559975684135Z " fill="#ffffff" transform="matrix(0.7073868454353903,0,0,0.7073868454353902,0,41.38248461251386)"/><path d="M649.8994830636527 440.59559975684135L629.9034617034725 440.59559975684135L593.3734167111434 290.5955947474894L612.5039386393157 290.5955947474894L628.620134959461 362.8200301081404L641.0654198955731 418.89842434064576L641.5130920155772 418.89842434064576L655.480462159703 362.8200301081404L674.3722256238733 290.5955947474894L695.0248327600594 290.5955947474894L713.2898552562241 362.8200301081404L727.25722540035 418.6895106846439L727.8839663683556 418.6895106846439L740.7769234244719 362.8200301081404L757.7586191766248 290.5955947474894L776.2325553287914 290.5955947474894L737.7625978164447 440.59559975684135L717.7964212642647 440.59559975684135L698.2480720240885 365.80451090816723L684.4896155359645 310.80052976367153L684.0419434159605 310.80052976367153L669.8656596158328 365.80451090816723L649.8994830636527 440.59559975684135ZM917.4283419780639 440.59559975684135L917.4283419780639 314.2326826837024L916.3539288900544 314.2326826837024L903.6698854899399 339.39185582792925L867.7665814656165 404.722140540518L831.893122249293 339.39185582792925L819.2090788491788 314.2326826837024L818.134665761169 314.2326826837024L818.134665761169 440.59559975684135L800.5262290410104 440.59559975684135L800.5262290410104 290.5955947474894L824.5811442892272 290.5955947474894L867.5576678096145 371.4153348122178L868.6320808976242 371.4153348122178L911.8175180740135 290.5955947474894L935.0367786982227 290.5955947474894L935.0367786982227 440.59559975684135L917.4283419780639 440.59559975684135ZM1027.4363042670554 440.59559975684135L1009.3801954268928 440.59559975684135L1009.3801954268928 381.2939662603069L957.8083672024279 290.5955947474894L978.4311295306138 290.5955947474894L1018.4231722509743 362.8200301081404L1019.0499132189799 362.8200301081404L1059.0121111313401 290.5955947474894L1079.664718267526 290.5955947474894L1027.4363042670554 380.63738048430093L1027.4363042670554 440.59559975684135ZM1219.3384197087848 440.59559975684135L1219.3384197087848 314.2326826837024L1218.2640066207755 314.2326826837024L1205.5799632206608 339.39185582792925L1169.6766591963374 404.722140540518L1133.8031999800141 339.39185582792925L1121.1191565799 314.2326826837024L1120.0447434918901 314.2326826837024L1120.0447434918901 440.59559975684135L1102.4363067717313 440.59559975684135L1102.4363067717313 290.5955947474894L1126.491222019948 290.5955947474894L1169.4677455403355 371.4153348122178L1170.5421586283453 371.4153348122178L1213.7275958047344 290.5955947474894L1236.9468564289436 290.5955947474894L1236.9468564289436 440.59559975684135L1219.3384197087848 440.59559975684135Z " fill="#1d1b1b" transform="matrix(0.7073868454353903,0,0,0.7073868454353902,0,41.38248461251386)"/></g></svg>